<?xml version="1.0" encoding="UTF-8"?><svg xmlns="http://www.w3.org/2000/svg" viewBox="0 0 792 424.79"><defs><style>.c{fill:#fff;}.d{fill:#ca940f;}</style></defs><g id="a"><g><path class="c" d="M372.5,126.06v7.99h-8.9v40.42h-10.89v-40.42h-8.83v-7.99h28.62Z"/><path class="c" d="M401.45,126.06h10.73v48.41h-10.73v-19.94h-9.74v19.94h-10.73v-48.41h10.73v20.48h9.74v-20.48Z"/><path class="c" d="M432.06,166.48h15.53v7.99h-26.41v-48.41h25.81v7.99h-14.92v11.8h12.71v7.99h-12.71v12.64Z"/><polygon class="d" points="515.56 97.83 454.46 195.24 448.8 195.37 511.77 95.26 515.56 97.83"/><path class="d" d="M523.99,102.39l-5.04-13.63-14.53,.58c-.49,.02-.72-.6-.33-.9l11.41-9.01-5.04-13.63c-.17-.46,.35-.87,.76-.6l12.09,8.07,11.41-9.01c.39-.3,.94,.06,.8,.54l-3.93,14,12.09,8.07c.41,.27,.23,.91-.26,.93l-14.53,.58-3.93,14c-.13,.47-.79,.5-.96,.04Z"/><path class="d" d="M500.76,206.55l75.45-46.34-2.41-3.89-75.77,46.5c1.24,.98,2.15,2.28,2.73,3.72Z"/><path class="d" d="M581.82,167.9l.94-14.51-13.51-5.37c-.46-.18-.41-.84,.06-.96l14.09-3.59,.94-14.51c.03-.49,.67-.65,.93-.24l7.77,12.29,14.09-3.59c.48-.12,.83,.44,.52,.82l-9.28,11.19,7.77,12.29c.26,.42-.16,.92-.62,.74l-13.51-5.37-9.28,11.19c-.31,.38-.93,.13-.9-.36Z"/><polygon class="d" points="281.49 95.26 344.47 195.37 338.81 195.24 277.7 97.83 281.49 95.26"/><path class="d" d="M269.28,102.39l5.04-13.63,14.53,.58c.49,.02,.72-.6,.33-.9l-11.41-9.01,5.04-13.63c.17-.46-.35-.87-.76-.6l-12.09,8.07-11.41-9.01c-.39-.3-.94,.06-.8,.54l3.93,14-12.09,8.07c-.41,.27-.23,.91,.26,.93l14.53,.58,3.93,14c.13,.47,.79,.5,.96,.04Z"/><path class="d" d="M284.42,195.52l-64.95-39.86-2.41,3.89,64.56,39.65c.61-1.43,1.54-2.72,2.8-3.68Z"/><path class="d" d="M211.44,167.22l-.94-14.51,13.51-5.37c.46-.18,.41-.84-.06-.96l-14.09-3.59-.94-14.51c-.03-.49-.67-.65-.93-.24l-7.77,12.29-14.09-3.59c-.48-.12-.83,.44-.52,.82l9.28,11.19-7.77,12.29c-.26,.42,.16,.92,.62,.74l13.51-5.37,9.28,11.19c.31,.38,.93,.13,.9-.36Z"/><polygon class="d" points="394.3 67.03 394.3 111.76 398.94 111.76 398.94 67.01 394.3 67.03"/><path class="d" d="M410.78,65.53l-14.16-10.29-14.16,10.29c-.48,.35-1.12-.12-.94-.68l5.41-16.65-14.16-10.29c-.48-.35-.23-1.1,.36-1.1h17.51l5.41-16.65c.18-.56,.98-.56,1.16,0l5.41,16.65h17.51c.59,0,.84,.76,.36,1.1l-14.16,10.29,5.41,16.65c.18,.56-.46,1.03-.94,.68Z"/><path class="c" d="M275.15,337.1c-11.05-41.92-21.8-83.91-32.4-125.94l3.4-2.5c2.8-2.06,.96-5.77-2.86-5.77h-43.3c-3.82,0-5.66,3.71-2.86,5.77l4.6,3.39c-10.72,44.61-21.19,89.27-31.42,133.99l-4.67,6.87c-1.81,2.1-.1,5.33,2.66,5.02l31.29-4.28c2.75-.31,3.7-3.84,1.47-5.48l-1.75-1.92c1.68-6.62,2.51-12.91,4.47-20.52,13.62-6.54,20.43-9.67,34.07-15.69,2.8,11.62,4.7,19.97,7.19,30.18l-2.06,3.16c-1.88,2.04-.29,5.32,2.48,5.11l31.32-2.77c2.76-.21,3.83-3.7,1.66-5.43l-3.29-3.17Zm-66.98-38.13c6.13-23.48,9.19-35.05,15.32-57.92,3.99,18.6,5.99,27.82,9.98,46.12-10.13,4.59-15.19,6.94-25.31,11.8Z"/><path class="c" d="M614.7,347.49c-10.88-45.34-22.01-90.61-33.43-135.82l3.98-2.93c2.8-2.06,.96-5.77-2.86-5.77h-43.3c-3.82,0-5.66,3.72-2.86,5.78l3.99,2.93c-10.05,41.61-20.26,83.19-30.69,124.71l-4.2,3.89c-2.17,1.72-1.1,5.22,1.66,5.43l31.34,2.66c2.76,.21,4.36-3.07,2.47-5.11l-1.6-2.51c1.6-5.92,5.33-23.57,7.19-30.52,11.96,5.4,18.03,7.79,35.28,15.62,.52,2.35,.69,6.98,3.51,19.86l-2.27,2.33c-2.23,1.64-1.29,5.17,1.47,5.48l31.08,4.31c2.75,.31,4.46-2.92,2.66-5.02l-3.42-5.31Zm-64.17-60.13c4.91-22.44,5.11-22.89,10.01-45.76,5.06,18.68,10.4,38.13,15.46,57.21-11.07-4.34-14.48-6.69-25.48-11.45Z"/><path class="c" d="M729.43,373.27l-5.88-8.4c-8.49-22.12-13.86-35.46-23.45-58.63,12.59-.79,18.88-8.24,18.87-22.32-.01-19.26-.02-28.89-.03-48.15,0-2.06-.15-4-.43-5.81h0s-.02-.09-.02-.14v-.04c-1.58-11.74-7.01-26.93-22.31-26.93l-72.92,.12c-3.82-.05-5.7,3.64-2.93,5.74l9.83,7.42c.22,45.32,.44,90.65,.67,135.97l-2.46,2.47c-2.31,1.53-1.55,5.1,1.19,5.55l31,5.1c2.74,.45,4.6-2.69,2.91-4.88l-2.82-4.74c-.08-19.91-.12-31.63-.21-53.2,3.94,.42,5.92,.64,9.86,1.08,9.44,23.45,14.44,36.2,23.28,59.72l-2.93,1.74c-2.66,1.58-2,5.6,1.03,6.25l34.26,7.35c3.02,.65,5.27-2.74,3.5-5.28Zm-41.82-90.16c-1.04,.81-2.94,1.09-5.7,.84-8.61-.78-12.92-1.16-21.55-1.88-.08-20.29-.12-33.1-.2-53.39,8.61,0,12.86-.23,21.49,0,7.5,0,7.4,5.67,7.4,10.1l.1,39.15c0,2.65-.51,4.38-1.54,5.19Z"/><path class="c" d="M156.03,203.08l-37.62,.14c-3.32,.01-4.9,3.73-2.46,5.78l5.98,5.03c-.09,23.87-.14,37.03-.23,62.07-13.51,1.05-20.25,1.6-33.74,2.78,.05-26.17,.08-39.89,.13-64.9l6.02-5.14c2.42-2.07,.81-5.78-2.51-5.76l-37.62,.14c-3.32,.01-4.9,3.73-2.46,5.78l6.63,5.57v151.83l-5.98,7.74c-2.02,2.47,.23,5.83,3.5,5.22l36.96-8.01c3.26-.61,4.16-4.55,1.39-6.13l-6.22-2.7c.05-23.25,.07-36.66,.12-61.62,13.47-1.56,20.21-2.29,33.71-3.68-.08,22.22-.13,34.91-.2,54.45l-7.53,9.63c-2.02,2.46,.22,5.83,3.48,5.23l36.97-6.26c3.26-.6,4.17-4.54,1.4-6.13l-4.54-3.49c.22-45.38,.44-90.76,.65-136.13l6.67-5.69c2.42-2.07,.81-5.78-2.51-5.76Z"/><path class="c" d="M499.37,270.26l-47.37-.12s-.02,0-.03,0h-.49c-1.35,.06-2.44,1.15-2.52,2.49v.24c0,.07,0,.14,0,.21l-.02,21.29c-.13,2.33,2.67,3.54,4.35,1.87l6.6-8.05c1.68,.04,3.43,.09,5.66,.15,.04,11.48,.05,17.21,.09,28.69,0,2.19-.51,3.64-1.56,4.34-1.04,.71-2.96,1.01-5.75,.91-4.94-.32-7.41-.47-12.35-.75-8.9-.26-10-3.58-10.01-5.75-.04-27.66-.07-55.31-.11-82.97-.01-7.21,2.59-9.63,9.94-9.61,3.83,.01,5.75,.02,9.59,.04,8.79,.04,9.96,1.42,9.99,9.76,.01,3.93,.02,6.72,.03,9.69l-5.09,4.43c-2.32,2.02-.89,5.76,2.21,5.82l35.21,.67c3.11,.06,4.67-3.62,2.44-5.73l-4.53-4.26c-.02-4.07-.03-7.58-.05-12.81,0-.61-.05-1.19-.09-1.78v-7.2c0-17.73-19.45-19.1-19.45-19.1h-49.85c-20.29,0-20.59,20.22-20.59,20.22v16.49h.01v6.56c11.49,3.8,19.78,14.63,19.78,27.39s-8.28,23.57-19.75,27.38c0,3.73,0,7.45,0,11.18l-.05-.04v10.39c0,17.73,19.55,19.1,19.55,19.1,0,0,29.72,2.66,50.11,2.66s20.7-20.22,20.7-20.22v-12.59l-.04-.21c-.05-10.9-.08-19.14-.13-30.34l5.61-5.17c2.04-1.88,.72-5.28-2.05-5.29Z"/><path class="d" d="M408.34,290.94l-11.76-8.55-11.76,8.55c-.4,.29-.93-.1-.78-.57l4.49-13.83-11.76-8.55c-.4-.29-.19-.92,.3-.92h14.54l4.49-13.83c.15-.47,.81-.47,.96,0l4.49,13.83h14.54c.49,0,.7,.63,.3,.92l-11.76,8.55,4.49,13.83c.15,.47-.38,.86-.78,.57Z"/><path class="c" d="M367.72,273.41c0-11.55,6.79-21.51,16.59-26.12,.02-12.27,.04-24.43,.05-36.3l3.32-3.09c1.98-1.84,.67-5.15-2.03-5.15l-30.65,.04c-2.7,0-4,3.32-2.02,5.16l4.03,3.73c-.05,27.42-.1,54.84-.15,82.26-10.81-26.03-21.54-52.08-32.21-78.16h.03c-4.4-13.29-9.52-13.29-13.01-13.29l-20.72,.28c-2.89,.03-4.24,3.59-2.1,5.52l4.62,4.19c-.17,40.35-.34,80.7-.52,121.05l-4.35,5.85c-1.92,2-.39,5.32,2.38,5.16l31.45-1.72c2.77-.16,3.9-3.63,1.77-5.4l-3.52-4.25c.09-26.4-.38-50.11-.3-76.51,11.01,26.72,22.52,53.97,33.66,80.64,1.09,2.61,4.25,4.31,7.82,4.23,5.63-.12,8.44-.17,14.06-.24,4.55-.06,8.23-2.93,8.24-6.44,0-11.57,.02-23.42,.04-35.37-9.75-4.63-16.49-14.56-16.49-26.07Z"/></g></g><g id="b"/></svg>